<svg xmlns="http://www.w3.org/2000/svg" width="1024" height="1024" viewBox="0 0 1024 1024">
  <path fill="#14181c" d="M512 46 L892 172 L892 468 C892 706 726 902 512 978 C298 902 132 706 132 468 L132 172 Z"/>
  <path fill="#2ecc9e" d="M512 118 L824 222 L824 468 C824 664 686 826 512 892 C338 826 200 664 200 468 L200 222 Z"/>
  <g stroke="#123527" stroke-width="20" fill="none" stroke-linecap="round">
    <line x1="512" y1="322" x2="386" y2="556"/>
    <line x1="512" y1="322" x2="638" y2="556"/>
    <line x1="386" y1="556" x2="638" y2="556"/>
    <line x1="512" y1="322" x2="512" y2="602"/>
    <line x1="386" y1="556" x2="512" y2="602"/>
    <line x1="638" y1="556" x2="512" y2="602"/>
  </g>
  <g fill="#ffffff" stroke="#123527" stroke-width="12">
    <circle cx="512" cy="322" r="52"/>
    <circle cx="386" cy="556" r="52"/>
    <circle cx="638" cy="556" r="52"/>
    <circle cx="512" cy="602" r="40"/>
  </g>
</svg>
